<svg xmlns="http://www.w3.org/2000/svg" width="262" height="132" viewBox="0 0 262 132"><title>shinherfa_logo</title><desc>Created with Sketch.</desc><g fill="none"><g fill="#003459"><g transform="translate(-135 -64)translate(135 64)"><path d="M46.3 131.6L45.2 131.6 45.2 121.6 47 121.6C47.5 124.4 48.2 126.5 49.2 128 50.2 129.6 51.2 130.3 52.4 130.3 53.3 130.3 53.9 130 54.3 129.2 54.7 128.4 54.9 127.2 54.9 125.5 54.9 122.8 53.7 120.4 51.2 118.2 51 118.1 50.9 118 50.8 117.9L49.2 116.5C47.6 115.1 46.5 113.8 45.9 112.6 45.3 111.5 45 110.1 45 108.6 45 106.2 45.5 104.3 46.6 103 47.6 101.7 49 101 50.9 101 51.6 101 52.3 101.2 53 101.5 53.6 101.8 54.3 102.3 55 103L56.5 101.5 57.1 101.5 57.1 110.6 55.6 110.6C55.1 107.6 54.5 105.5 53.8 104.4 53.2 103.3 52.3 102.8 51.1 102.8 50.1 102.8 49.4 103.1 48.9 103.9 48.4 104.6 48.1 105.7 48.1 107.1 48.1 108.3 48.4 109.3 48.8 110.2 49.2 111.1 50.3 112.3 51.8 113.8L53.4 115.2C55.3 117 56.6 118.5 57.2 119.8 57.7 121.1 58 122.8 58 124.7 58 127.1 57.5 128.9 56.6 130.1 55.6 131.4 54.2 132 52.3 132 51.4 132 50.5 131.8 49.8 131.3 49 130.9 48.3 130.2 47.5 129.1L46.3 131.6Z"/><path d="M61 131L62.6 129.1 62.6 103 61 101 68.1 101 66.6 103 66.6 113.9C67.1 114.1 67.6 114.3 68.2 114.4 68.7 114.5 69.4 114.5 70 114.5 70.7 114.5 71.3 114.5 71.9 114.4 72.4 114.3 73 114.1 73.5 113.9L73.5 103 71.9 101 79 101 77.4 103 77.4 129.1 79 131 71.9 131 73.5 129.1 73.5 116.1C72.8 116.3 72.3 116.4 71.7 116.5 71.2 116.5 70.6 116.6 70 116.6 69.5 116.6 69 116.5 68.4 116.5 67.8 116.4 67.2 116.3 66.6 116.1L66.6 129.1 68.1 131 61 131Z"/><polygon points="86.4 129.1 88 131 81 131 82.6 129.1 82.6 103 81 101 88 101 86.4 103"/><path d="M104.2 103L102.6 101 109 101 107.4 103 107.4 131 105.8 131 98.5 113.6C98.2 112.6 97.8 111.7 97.4 110.6 97.1 109.5 96.6 108.2 96.2 106.7L95.6 106.7C95.7 107.5 95.7 108.2 95.8 109.1 95.8 109.9 95.8 111.1 95.8 112.6L95.8 129.1 97.4 131 91 131 92.6 129.1 92.6 103 91 101 97.2 101 101.7 112.8C101.8 113 101.9 113.2 102 113.5 102.9 115.8 103.5 117.9 103.8 119.7L104.5 119.7C104.4 118.8 104.3 117.8 104.3 116.9 104.2 115.9 104.2 114.9 104.2 113.8L104.2 103Z"/><path d="M120 131L121.6 129.1 121.6 103 120 101 127.1 101 125.6 103 125.6 113.9C126.1 114.1 126.6 114.3 127.2 114.4 127.7 114.5 128.4 114.5 129 114.5 129.7 114.5 130.3 114.5 130.9 114.4 131.4 114.3 132 114.1 132.5 113.9L132.5 103 130.9 101 138 101 136.4 103 136.4 129.1 138 131 130.9 131 132.5 129.1 132.5 116.1C131.8 116.3 131.3 116.4 130.7 116.5 130.2 116.5 129.6 116.6 129 116.6 128.5 116.6 128 116.5 127.4 116.5 126.8 116.4 126.2 116.3 125.6 116.1L125.6 129.1 127.1 131 120 131Z"/><polygon points="140 131 141.6 129 141.6 103 140 101 154.7 101 154.7 109 154 109 150.6 103 145.6 103 145.6 114.2 148 114.2 151.4 110.1 151.9 110.1 151.9 120.1 151.4 120.1 148 116.2 145.6 116.2 145.6 129 150.7 129 154.2 122.6 155 122.6 155 131"/><path d="M163.7 114.5C163.8 114.5 163.9 114.5 164.1 114.5 164.2 114.5 164.3 114.5 164.4 114.5 166.2 114.5 167.6 114 168.5 113 169.4 112 169.9 110.4 169.9 108.4 169.9 106.5 169.4 105.1 168.5 104.3 167.6 103.4 166.1 103 164.1 103L163.7 103 163.7 114.5ZM163.7 129.1L165.3 131 158 131 159.6 129.1 159.6 103 158 101 163.9 101C167.5 101 170 101.6 171.6 102.8 173.2 104 174 106 174 108.7 174 110.4 173.4 111.9 172.3 113.1 171.1 114.2 169.3 115.1 167 115.7 169 116.1 170.5 116.8 171.5 117.9 172.4 119.1 172.9 120.8 173 123.1L173 125.3C173 125.4 173 125.6 173 125.8 173.1 127.9 173.7 129.6 175 131L170.9 131C170.1 130.6 169.6 129.9 169.2 129.1 168.8 128.2 168.6 127 168.6 125.6L168.5 123.4C168.5 120.8 168.1 119 167.4 118.2 166.7 117.5 165.5 117 163.7 117L163.7 129.1Z"/><polygon points="185 131 186.6 129 186.6 103 185 101 200 101 200 109 199.3 109 195.8 103 190.6 103 190.6 114.8 193 114.8 196.4 110.1 197 110.1 197 121.3 196.4 121.3 193 116.8 190.6 116.8 190.6 129 192.2 131"/><path d="M203.2 120.1C203.7 120.3 204.1 120.4 204.6 120.5 205 120.6 205.4 120.7 205.8 120.7 206.3 120.7 206.7 120.6 207.1 120.5 207.5 120.4 207.9 120.3 208.4 120.1L207 112C206.9 111.5 206.8 110.8 206.7 109.9 206.6 109.1 206.5 108.1 206.4 107.1L205.9 107.1C205.8 107.9 205.7 108.8 205.5 109.6 205.4 110.4 205.2 111.2 205 112L203.2 120.1ZM197 131L198.8 128.9 204.5 102.8 203.2 101 210.1 101 208.8 102.8 213.4 128.9 215 131 208.3 131 210 128.9 208.8 122.2C208.2 122.4 207.6 122.5 207.1 122.6 206.6 122.7 206.2 122.7 205.8 122.7 205.4 122.7 205 122.7 204.5 122.6 204 122.5 203.5 122.4 202.8 122.2L201.3 128.9 202.9 131 197 131Z"/><path d="M11.1 6C11.8 8.2 13.9 10 15.8 11.3 16.3 11.5 16.7 11.8 17 12.1 17.4 12.4 17.4 12.9 17.8 13.2 18.6 13.7 19.4 14.5 19.5 15.5 19.7 16.8 16.5 18.3 15.7 19.2 14.9 20 13.9 20.6 13.2 21.5 12.5 22.2 11.3 22.7 11 23.6 12.9 23.2 14.9 22 16.6 21.2 18.9 20.2 21 19 23.3 18.3 25.1 17.7 26.9 17.1 28 15.6 28.8 14.5 28.5 12.4 28.2 11.2 27.5 8.1 24.6 5.5 22 4 19.7 2.4 15.5 0.8 12.7 1.6 12.1 1.9 10.3 3.8 10.6 4.9 10.7 5.3 10.9 5.6 11.1 6ZM257.7 43.5C255.5 40.8 252.3 37.2 247.5 37.6 246 38.6 245.7 40 246.5 41.6 246.8 42.3 247.2 42.9 247.7 43.4 248.1 43.9 249 44.2 249.3 44.7 249.7 45.5 250.9 45.7 250.8 46.8 250 47.3 249.1 47.6 248.2 47.9 247.5 48.1 246.9 48.4 246.3 48.6 246 48.8 245.7 48.9 245.4 49 245.1 49.1 244.7 49.3 244.4 49.4 245.4 49.5 246.4 49.5 247.6 49.5 248.6 49.6 249.7 49.4 250.6 49.5 251.4 49.6 251.6 49.5 252.3 49.6 253.4 49.7 254.4 49.8 255.4 50.1 255.4 50.2 255.8 50.2 255.9 50.3L256.9 50.5C258 50.6 258.9 49.2 259.2 48.3 259.6 47.1 259.5 45.6 258.7 44.5L257.7 43.5ZM66.8 37.3C65.3 35.8 63.4 35 61.7 33.8 60.9 33.3 60.4 32.2 59.6 31.6 58.4 30.7 57.5 29.7 56.6 28.4 55.2 26 53.2 24 51.9 21.5 50.6 18.9 49.6 16.2 48.8 13.4 48.4 11.8 48.3 10.4 48.2 8.8 48.1 7.2 48.8 5.4 48.3 4 48.3 4 48.2 3.9 48.2 3.9 46.7 5 46.2 6.7 45.5 8.3 44.8 10.2 44.1 12.1 43.5 14.1 43.1 15.5 42.6 16.8 42.3 18.2 42.1 19 41.7 19.8 41.4 20.6 41.2 21.1 41 21.6 40.8 22.2 40.6 22.6 40.5 23.3 40.4 24 40.2 24.6 39.9 25.3 39.8 26 39.4 27.4 38.8 28.7 38.7 30.2 38.6 31.4 38.1 32.5 37.9 33.7 37.9 34.3 37.6 36.1 37.4 37.6 37.3 39.5 37.5 41.8 37.5 42.6 37.5 43.4 37.7 44.4 37.2 45 36.6 45.8 35.5 46.1 34.7 46.5 32.9 47.4 31.2 48.7 29.4 49.5 29 49.7 27.9 50.2 27.6 49.6 27.4 49.2 27 48.3 27.2 47.8 27.3 47.6 27.4 47.4 27.5 47.1 28 46.6 28.9 46.2 29.4 45.7 30.1 45 31 44.4 31.7 43.7 32.4 43 32.9 42.1 33.7 41.4 34.3 40.9 34.8 40.2 35.2 39.6 35.6 39.2 36.1 38.8 36.3 38.3 36.5 37.7 36.4 37 36.3 36.4 36.2 35.9 35.7 35.6 35.5 35.1 35.1 34.5 34.4 34.5 33.9 34.2 33.2 33.8 32.5 33.4 31.8 33 31.2 32.6 28.8 31.2 29.1 30.4 29.4 29.7 30.6 29.2 31.2 28.8 32.3 28.1 33.5 27.7 34.6 27.1 36.3 26.3 38.3 26.4 39.5 25 39.8 24.6 39.4 23.8 39.2 23.4 38.2 22 37.9 21.6 36.9 20.7 35.6 19.7 34 18.8 32.5 18.3 31.7 18 30.6 17.7 29.9 18.2 29.3 18.7 29.2 19.7 28.5 20 27.4 20.6 27.1 20.5 25.4 21.3 24.4 21.8 23.1 22.4 22.1 23 20.3 23.9 18.5 25 16.5 26.1 14.4 27.3 12.2 28.4 10.3 29.9 8.8 31 5.9 33 4 33.7 2.5 34.4 0.5 35.2 0.2 35.5 -0.7 36.5 1.7 37.6 2.6 37.9 4.6 38.8 5 38.9 7 38.9 7.7 38.9 8.7 38.8 9.5 38.8 10.8 38.7 11.2 38.7 12.2 38.4 13.4 38.1 14.8 37.1 16.1 37.5 16.6 38.3 14.3 40.9 13.9 41.6 13.4 42.8 13 44 12.6 45.2 12.1 46.5 11.5 47.7 11.4 49.2 11.3 50.9 12.2 53.7 14.5 53.5 15.5 53.4 16.6 53.6 17.5 53.3 18.4 53 19.8 52.4 20.7 53 21 54.4 19.3 54.8 18.4 55.3 17.6 56 16.8 56.3 15.9 56.6 15.1 56.9 14.5 57.4 13.6 57.7 12.8 58 12 58.5 11.2 58.8 10.1 59.1 9.2 59.4 8.1 59.4 7.2 59.5 6.5 59.7 5.8 60.2 5 60.9 5.4 61.4 5.8 62.1 6.6 63.6 7.5 64 9.1 64.2 10 64.3 10.9 64.5 11.6 65 12.2 65.5 12.5 66.2 13 66.8 13.6 67.5 14.4 67.9 15 68.5 15.7 69.2 16.3 70 16.9 70.7 17.7 71.4 18 72.1 18.5 73 18.9 73.4 19.2 73.7 19.6 74 19.8 74.7 20 75 20.5 75.4 20.5 75.5 21 76.3 21.1 76.4 21.9 77.8 25 78.1 26.1 76.8 26.6 76.2 27 75.9 27.2 75.1 27.3 74.4 27.4 73.5 28.1 73 29.4 73.1 30.5 73.8 31.7 74.5 32.1 74.7 32.3 74.7 32.7 75.1 33.1 75.6 34.3 75.7 34.6 76.3 34.6 76.3 35.9 76.9 36.7 77.5 39.4 78.8 46.3 79.9 51.7 77.3 53.2 76.2 54.5 75.6 54.8 75.1 56.3 73.8 57.4 72.2 58.8 70.8 59.6 69.9 60.7 70.2 61.8 70.3 63.8 70.3 64.2 68.6 64.5 67.2 64.6 66.2 64.4 65 64 64.1 63.5 62.8 62.6 62 61.7 61.1 60.5 60 59.6 58.7 58.2 57.8 56.9 56.9 55.9 54.9 54.1 54.7 53.7 54.9 53.5 55.2 53.1 55.4 52.3 55.4 51.9 55.5 51.1 55.9 47.5 56.7 43 53.1 44.7 49.2 45.3 47.9 48.8 47.7 50 47.3 50.7 47.1 51.5 46.9 52.1 46.5 52.5 46.3 52.8 46.1 53.2 46 54 46 54.7 45.8 55.3 45.6 55.9 45.6 56.3 45.4 56.8 45.4 58 45.4 58.5 45.4 59.6 44.9 60.3 44.6 61.1 44.8 61.9 44.7 62.8 44.6 63.6 44.3 64.5 44.1 66.1 43.7 66.9 43.5 68.2 42.5 68.7 42 68.6 40.2 68.3 39.6 68.1 38.7 67.5 37.9 66.8 37.3ZM20.4 44.7C20.1 45.9 19.1 46.5 18 47.1 17.5 47.3 17.1 47.8 16.3 47.8 16.3 47.8 16.3 47.7 16.3 47.7 15.7 46.9 16.6 45.3 17 44.7 17.7 43.2 18.5 41.2 19.7 40.1 19.8 40.1 19.9 40.1 20 40.2 20.4 40.7 20.3 41.6 20.3 42.2 20.3 43.1 20.5 43.9 20.4 44.7ZM21.3 66.8C20.9 68.4 19.7 67.3 18.8 67 17.7 66.6 16.1 66.2 15.4 65.2 15.4 65.1 15.4 65 15.4 64.9 15.9 64.3 19.4 63.1 20.3 62.7 20.5 62.6 20.7 62.5 20.8 62.7 21.1 63.2 21.5 66.1 21.3 66.8ZM26.9 34.2C27 34.1 27 34.1 27.1 34 27.8 34 27.8 34.3 28.1 34.8 28.5 35.5 29.3 35.9 29.5 36.8 29.7 37.8 28.3 39.5 27.2 39.2 26.9 38.6 27 37.6 27 36.9 26.9 36.2 26.7 34.8 26.9 34.2ZM44.4 58.4C44.6 58.5 44.7 58.7 44.9 58.9 45.6 59.1 46.2 59.6 46.9 59.9 47.7 60.3 48.7 60.4 49.6 60.6 50.1 60.6 50.9 60.6 51.3 61 51.9 61.4 51 62.4 50.7 62.8 49.2 64.5 48.1 66 45.6 66.1 44.9 66.4 44.8 67.1 43.9 67.2 43.5 67.3 43.2 67.3 42.8 67.3 42.3 67.5 42 67.9 41.6 68 40.7 68 40.4 68.2 39.5 68.5 38 68.5 36.5 68.7 34.9 68.6 33.5 68.5 32.1 68 30.7 68 29.7 68.1 29.1 67.7 28.3 67.3 28.2 67 28.4 66.6 28.4 66.3 28.1 65.7 27.8 65 27.8 64.4 27.7 63.3 28 62.3 27.8 61.2 27.6 59.5 27.5 58.3 29.1 57.3 29.8 56.8 30.5 56.4 31.1 56 32.1 55.3 32.9 54.3 34 53.8 35.6 53 36.9 52.5 38.6 51.8 39.5 51.8 39.6 52.2 39.8 52.9 40.1 53.6 40.6 53.9 40.9 54.5 41.7 56 42.9 57.5 44.4 58.4ZM53.5 39.2C53.2 39.3 52.6 39.7 52.3 39.8 51.6 40.1 50.9 40.1 50.3 40.2 49.1 40.3 48.1 40.9 46.9 40.9 46 40.9 46.9 39 47 38.7 47.3 37.6 47 36.9 47.3 35.8 47.5 34.9 47.7 34 47.9 33.1 48.3 31.1 48.3 29.1 48.1 27.1 48 26.3 47.9 25.5 47.8 24.6 47.8 23.9 47.6 23.4 47.5 22.7 47.5 22 47.1 20.5 47.8 19.9L48 19.9C48.3 20.5 48.7 20.8 49 21.7 49.5 23.1 50 24.4 50.9 25.8 51.8 27.4 52.2 29.2 53.4 30.7 54.2 31.7 54.3 33.1 55 34.1 55.6 34.9 56.1 35.8 56.7 36.6 57.1 37.1 57.7 37.6 57.7 38.4 56.9 39.2 54.8 38.8 53.5 39.2ZM261.7 32C261.4 29 259.6 27.3 257.4 25.4 256.2 24.4 255 23.5 253.5 23 252 22.4 250.6 21.5 249.1 21.3 247.4 21.7 245.6 21.3 244.1 22.5 243.3 23.1 242.9 24.1 241.9 24.5 241.3 24.7 240.5 24.7 240.1 24.2 239.6 23.7 239.8 23 239.4 22.5 238.2 21.7 237.6 20.3 236.3 19.4L236.3 19.2C236.6 18.7 238.3 17.7 238.8 17.6 239.5 17.6 240.2 17.6 240.9 17.4 241.8 17.2 242.9 17.2 243.6 16.5 244.7 15.5 244.3 14.2 244.3 12.9 243.6 10.8 241.8 9.1 240.4 7.4 238.9 5.4 236.3 4.5 234 4 231.5 3.4 228.9 4 226.5 4.4 223.6 4.9 220.5 5.9 217.9 7.2 216.6 7.8 215.4 8.7 214.2 9.5 213.5 10 212.6 11.4 211.6 11 210.8 10.7 210.5 9.8 210 9.2 209.3 8.4 208.1 7.9 207.2 7.1 206.2 6.2 205.1 6.4 204 5.8 203.1 5.4 202.5 5.1 201.6 4.9 200.9 4.8 199.8 4.6 199.4 5.3 198.9 6.1 198 6.3 198.6 7.5 201.7 10.2 204.4 13.2 206.6 16.6 206.9 17.5 206 17.9 205.5 18.4 205.3 18.8 205.3 19.2 205.1 19.5 204.8 20 204.4 20.4 204 20.9 202.8 22.3 202.5 24.6 202.4 26.4 202.2 28.4 202.4 30.6 203.2 32.5 203.5 33.4 204 34.1 204.6 34.8 204.9 35.2 205.3 35.6 205.7 35.9 206 36.1 206.4 36.1 206.8 36.3 206.8 36.4 206.9 36.6 206.8 36.7 206.5 37.4 205.6 37.6 205.1 38.1 204.3 38.9 203.3 39.4 202.3 40 200.2 41.4 198.1 42.8 195.8 44 193.8 45.1 191.7 46.4 189.5 47.1 188.4 47.5 187.4 48.1 186.3 48.7 185.9 48.9 185.5 49.1 185.1 49.2 184.6 49.4 182.9 50.4 182.7 50.7 183 52.3 185.8 53.4 187.1 53.8 189.5 54.6 192.3 54.1 194.6 53.3 196.8 52.5 199.2 52 201.1 50.7 202.2 50.1 203 49.1 204.1 48.6 204.5 48.2 205.3 47.1 206 47.3 206.3 47.4 204.1 52.9 203.9 53.4 203.4 54.8 203.1 55.7 203.1 57.2 203.2 58.6 202.9 60.1 202.8 61.6 202.7 63 202.8 64.4 202.8 65.8 202.8 67.3 202.2 68.6 202.3 70 202.3 71.5 202.5 72.9 202.6 74.3 202.9 74.9 203.2 75.3 203.2 76 203.3 76.3 203.7 76.9 203.6 77.2 203.9 77.7 204.6 78.5 204.9 79.1 205.5 79.8 206.6 80.1 207.6 80 208.7 79.9 209.9 79.2 210.3 78.7 210.8 78.3 211.3 77.2 211.5 76.1 211.6 75.5 211.5 75.2 211.7 74.7 212 74 211.7 73.6 211.9 72.9 212 72.7 212 72.3 212.5 72.3 213.5 72.1 214.2 73.1 214.9 73.7 215.9 74.5 217.1 74.8 218.3 75 220.3 75.4 222.9 75.7 224.8 74.5 225.4 73.8 226.3 73.7 227.1 73.2 227.7 72.7 228.4 72.2 229 71.6 229.6 71.2 230.2 70.4 231 70.6 232 70.7 232.9 71.4 233.9 71.7 234.6 71.9 236.6 73.4 237.3 73.7 238 73.9 238.7 74.2 239.3 74.6 241.1 75.8 240 76.8 238.3 77.2 237 77.6 236.8 77.3 236.2 77.5L243.8 79.1C243.8 79.1 247.4 79.3 252.3 79.2 257.6 79 256.7 76.9 257.3 75.9 257.5 74.2 257.4 73.3 256 72.3 254.7 71.4 256.7 72.2 254.7 71.2 254 70.9 246.6 67.5 245.6 67.1 243.3 66.1 242.2 65.6 240.4 64.9 239.7 64.6 236.7 63.8 236.7 62.9 236.8 62.1 238 60.8 238.8 60.6 239.5 60.4 240.3 60.7 240.9 60.4 241.7 60 242.4 59.3 242.8 58.5 243.3 57.4 243.2 55.7 242.5 54.7 241.7 53.9 241.2 52.9 240.3 52.2 239.3 51.4 238.1 51 237 50.5 235.9 50.1 234.5 49.6 233.3 49.8 232.1 50 231.1 50.7 229.8 50.7 229 50.2 229.9 48.6 230.4 48.1 231.3 47.3 232.7 47.2 233.5 46.3 234.6 45 236.6 44.8 238.1 44.3 239.8 43.7 242.6 43.1 243.5 41.4 244.5 39.6 240.9 37.9 239.7 37.5 238.5 37.4 237.5 37 236.3 36.7 235.5 36.4 235.2 36.5 234.6 37.2 234.2 37.8 232.9 38.6 232.1 38.2 231.8 38 231.7 37.1 231.3 36.7 230.8 36.3 229.8 35.9 229.6 35.3 229.6 34.4 232.9 33.9 233.6 33.8 235.1 33.6 236.6 33.6 238.2 33.5L243.6 33.1C246.1 32.9 248.3 34 250.7 34.1 252.8 34.2 254.6 35 256.6 35.4 257.4 35.5 258.4 35.4 259.2 35.2 260.4 35 261.2 34.5 261.7 34.1 262.3 33.6 261.9 32.6 261.7 32ZM217.8 15.4C219.1 14.6 220.5 14 221.9 13.5 223.3 13 225 12.4 226.5 12.4 227 12.4 229.1 11.8 229.5 12.5 229.8 13.2 227.6 15.4 227 15.5 225.9 15.9 224.6 15.3 223.5 15.3 222.5 15.4 221.3 15.5 220.5 16.1 220.5 16.2 220.5 16.4 220.5 16.5 221.3 17.4 222.3 17.7 223.2 18.4 224.2 19.1 222.8 20.3 222.3 20.8 221.2 21.9 220.6 23.3 219.5 24.4 218.9 25.2 217.6 27.4 216.4 27.2 216.1 26.6 216.3 25.9 216.4 25.3 216.6 24.4 216.4 23.7 216.4 22.9 216.3 20.9 215.5 19.3 215.1 17.4 215.6 16.5 216.9 15.9 217.8 15.4ZM206.3 27C206.7 25.5 207.6 24.2 208.6 23.2L209.1 23.1C209.7 23.6 209.8 24.8 210.1 25.4 210.5 26.8 210 28.2 209.2 29.3 208.8 30 208 31.6 207.1 30.9 206.2 30.2 206.1 27.9 206.3 27ZM211.4 57.6C209.9 59.9 208.5 62.2 207.7 64.8 207.7 65.4 206.6 69.1 205.6 68.7 204.8 68.3 205.1 66 205.2 65.3 205.3 63.5 205.8 62.1 207 60.8 208.3 59.2 209.9 57.7 210.2 55.5 210.2 55.1 210.4 54.8 210.6 54.4 210.9 53.8 210.8 53.6 210.6 53 210.6 52.3 210.4 51.6 210.9 51.1 212.1 51.1 213.3 51.6 214.4 51.8 214.6 51.8 214.8 52.1 215 52.2 215 52.8 213.9 53.8 213.6 54.3 212.8 55.4 212.1 56.5 211.4 57.6ZM215.3 54.6C215.6 53.9 216 52.8 216.6 52.3 217.2 51.8 218.5 51.9 219.2 52.1 219.9 53 219 55.7 218.7 56.8 218.3 58.8 216.8 60.7 215.5 61.8 215.2 62 214.8 62.2 214.5 62.3 213.9 62.6 213.5 62.9 213.3 62.8 213.2 62.7 213.2 62.7 213.2 62.7 213 61.9 213.5 60.9 213.7 60.3 214.1 59.2 214.3 58.2 214.5 57.1 214.7 56.3 215 55.4 215.3 54.6ZM220.1 67.4C219.1 68.8 217.1 68.9 215.5 68.7 214.7 68.6 212.8 69.3 212.2 68.4 212.2 68.4 212.1 68.2 212.2 67.9 212.3 67.6 213 66.8 213.6 66.3 214.3 65.7 215.2 65.3 216 65.1 217.1 65 220.2 66 220.6 66.6 220.6 67.1 220.4 67.1 220.1 67.4ZM221.7 43.8C220.3 45.6 217.5 45.7 215.5 46.7 214.6 47.1 212.7 48.3 211.3 47.9 211.2 47.8 211.1 47.6 211.2 47.3 212.5 45.8 213.7 44 214.8 42.3 215.4 41.3 216.6 40.7 217.6 40 218.2 39.6 218.7 39.1 219.3 38.7 220.1 38.3 221 38 221.8 37.6 222.1 37.6 222.3 37.6 222.4 37.8 222.7 38.8 222.2 40 222.2 41 222.2 41.9 222.3 43 221.7 43.8ZM231.1 56.3C231.3 56.3 231.5 56.4 231.7 56.4 232.4 57.4 229.2 60.1 228.5 60.6 227.8 61.1 226.5 60.7 225.7 60.6 224.9 60.5 223.1 61 222.5 60.3 222.3 59.4 224.7 58.9 225.3 58.7 226.2 58.2 227.1 57.6 228.1 57.2 229.1 56.8 230.2 56.8 231.1 56.3ZM232 25C231.1 25.1 230.1 25.5 229.3 25.4 229.2 25.3 229.1 25.3 229.1 25 229.6 24.5 230.3 24.2 230.8 23.7 231.4 23.6 232.1 24 232.4 24.3L232.4 24.6C232.3 24.8 232.1 25 232 25ZM173.2 52C172.5 51.9 171.3 51.5 170.6 51.3 167.7 50.4 164.7 49.4 161.7 48.7 159.2 48.1 157 47.2 155.1 46.2 154.7 46 153.6 45.7 153.2 45.4 152.5 44.7 151.9 44.6 151.2 44.2 150.8 43.7 150.4 43.6 149.9 43.3 149.2 42.8 148.7 42.5 147.9 42.2 146.6 41.1 145.1 40.4 143.7 39.4 142.7 38.6 141.6 37.7 140.6 36.8 139.7 35.9 138.4 35 137.8 33.8 137.2 32.8 136.1 32 135.3 31.2 134.7 30.7 134.5 30 134 29.5 133.4 29 133 28.5 132.5 27.9 131.7 26.9 130.7 26 130 25 129.6 24.3 129.1 23.7 128.7 23.1 128.3 22.5 128.1 21.9 127.7 21.4 126.6 20.2 125.7 18.9 124.8 17.6 124 16.5 124.2 15.7 124.9 14.5 127.6 9.7 128.1 9.6 126.9 6.9 125 3 118.9-3.3 115.1 2.1 114.4 3.9 114.5 7.5 113.3 12.7 113.2 13.4 111.8 18.9 110.8 21 109.4 23.9 108.5 26.7 107.1 29.6 105.8 32.2 104.7 34.8 103.1 37.1 102.2 38.3 101.5 39.7 100.6 40.8 99.7 41.9 98.8 43 97.9 44.1 96.3 46 92 50.9 85.9 54.4 83.7 55.7 81.4 56.9 79.2 57.9 79.2 58.1 79.2 58.1 79.3 58.3 80.4 58.9 81.1 58.7 82.3 59.1 82.8 59.2 84.6 59.2 85.2 59.2 87.3 59.1 88.8 58.7 90.3 58.5 92 58.2 93.6 57.7 95.2 56.9 95.8 56.6 96.8 56.3 97.3 55.8 97.8 55.3 97.9 55.1 98.6 54.9 99.2 54.7 99.5 54.1 100 53.8 100.5 53.6 101.1 53.3 101.3 52.8 101.4 52.2 102.1 52.3 102.5 51.8 103 51.3 103.7 50.9 104 50.3 104.4 49.7 105 49.4 105.5 48.9 105.9 48.5 106 47.9 106.5 47.5 107.4 46.6 108.7 48 109.5 48.4 110.9 49 112.6 49.6 114.1 49.7 114.5 49.7 117 49.3 116.8 50.2 116.8 50.6 115.6 52.3 115.1 52.7 112.8 54.7 110.5 57.5 109 60.1 108.2 61.4 107.6 60.6 106.7 60 105.9 59.3 105.1 58.6 104 58.3 102.9 58 102.3 59.7 102.4 60.6 102.4 61.2 102.7 61.8 102.8 62.4 102.9 62.8 102.8 63.3 103 63.7 103.2 64 103.2 64.2 103.4 64.5 103.5 65 103.8 65.5 103.9 65.9 104.5 66.9 104.6 67.5 105.4 68.4 106.1 69.3 106.2 70.1 107 70.8 107.7 71.7 108.2 72.3 109.1 73 109.8 73.5 110.4 74.3 111 75.2 112 77.7 111.7 79.1 115.2 79.2 118.2 79.3 121.1 79.4 124.1 79.2 125.9 79 127.9 78.6 129.7 78.4 130.9 78.3 132 77.9 133.2 77.5 133.8 77.3 134.5 76.5 134.7 75.9 135.4 74.3 136.6 72.9 137.8 71.6L137.8 71.6C138.3 71.2 138.7 70.8 139.2 70.3 139.8 69.6 140.6 69.1 141.2 68.5 142 67.7 145.2 67.9 145.9 67.5 146.4 67.3 146.9 66.9 147 66.3 147.3 65.2 147.3 64.9 146.9 63.9 146.9 63.3 146.5 62.9 146.3 62.1 144.2 59.3 141.6 57 138.5 55.2 137.2 54.5 135.5 53.4 133.9 53.4 132.3 53.4 130.8 54.1 129.2 54.2 127.2 54.3 125.3 54.6 123.4 55.1 122.3 55.4 121.4 55.7 120.4 56.1 119.5 56.4 118.5 56.4 117.6 56.8 116.9 57.1 116.3 57.5 115.7 57.9 115 58.4 114.1 58.7 113.4 59.2 112.4 59.9 111.7 61.8 110.3 61.8 110.3 61.8 110.2 61.7 110.2 61.7 109.7 61 111 59.6 111.3 58.9 111.5 58.3 112 58.1 112.3 57.7 112.8 57.1 113.2 56.5 113.8 55.9 114.6 55.1 115.6 54.4 116.4 53.5 117.4 52.5 118.6 51.6 119.5 50.5 120.3 49.5 121.5 49 122.4 48.1 123.5 47.1 124.5 46.4 125.8 45.8 127.1 45.2 128.1 44.1 129.3 43.4 130.1 43 130.7 42.9 131.5 42.7 132.3 42.6 132.5 42.2 133.1 41.8 134 41.6 134.5 42.9 135 43.5 135.9 44.5 136.8 45.4 137.6 46.5 138.4 47.7 139.5 48.7 140.4 49.9 140.8 50.4 141.4 50.8 141.8 51.3 142.7 52.4 143.6 53.6 144.7 54.6 145.6 55.5 146.3 56.3 147.4 57 149.8 58.5 152.6 59.5 155.4 58.7 157.1 58.2 158.9 57.6 160.7 57 162.7 56.4 164 56.1 165.7 55.5 166.6 55.2 167.6 55.1 168.6 54.9 169.8 54.6 170.8 54.3 171.9 54 173.5 53.6 176.7 52.6 173.2 52ZM113.7 65.9C113.9 65.6 114.7 65.5 115.1 65.4 115.9 65.3 116.5 64.8 117.3 64.6 118.8 64.3 120.1 63.7 121.6 63 123.1 62.3 124.5 62.2 126.1 61.8 126.9 61.6 130.8 60.3 131.3 61.2 131.4 61.6 131.2 61.9 131 62.1 130.2 62.9 129.4 63.8 128.7 64.8 128.1 65.4 127.7 66.2 127 66.8 126.3 67.5 125.9 68 125.3 68.8 125.2 69 124.8 69.7 124.7 69.8 123.7 70.9 122.7 70.8 121.4 71.5 120.2 72.2 119.4 72.6 118.4 71.5 117.5 70.5 116.2 70.3 115.5 69 115.2 68.4 115 67.8 114.5 67.3 114.2 67 113.5 66.6 113.7 65.9ZM126.6 32.3C126.6 32.3 126.6 32.4 126.5 32.4 125.4 32.3 124.1 32.2 123.5 32.5 122.8 32.9 122.5 33.6 122.2 34.2 121.7 34.8 121.6 35.5 121.1 36 120 37 119.4 38.1 117.7 38.9 117 39.3 116.4 39.5 115.8 40 115 40.5 114.4 40.8 113.6 41.2 113 41.5 112.3 41.8 111.7 42.2 111.2 42.4 110.4 43.2 109.8 43.1 109.8 43.1 109.6 43 109.6 43 110.1 41.9 111.7 40.2 112.3 39.2 112.8 38.5 113 37.4 113.6 36.7 114.3 35.8 114.7 34.7 115.3 33.7 116.3 31.9 117.1 30.1 118 28.3 118.4 27.5 119 26.6 119.2 25.7 119.4 25.1 119.9 23.6 120.4 23.1 120.6 23.1 120.8 23.1 121 23.1 121.6 23.7 121.8 24.6 122.3 25.4 122.9 26.3 123.6 27.1 124.2 28.1 124.6 28.8 125 29.6 125.6 30.3 125.9 30.7 126.8 31.6 126.6 32.3Z"/></g></g></g></svg>
