<?xml version="1.0" encoding="utf-8"?>
<!-- Generator: Adobe Illustrator 16.0.0, SVG Export Plug-In . SVG Version: 6.00 Build 0)  -->
<!DOCTYPE svg PUBLIC "-//W3C//DTD SVG 1.1//EN" "http://www.w3.org/Graphics/SVG/1.1/DTD/svg11.dtd">
<svg version="1.1" id="圖層_3" xmlns="http://www.w3.org/2000/svg" xmlns:xlink="http://www.w3.org/1999/xlink" x="0px" y="0px"
	 width="116px" height="114px" viewBox="0 0 116 114" enable-background="new 0 0 116 114" xml:space="preserve">
<g>
	<rect fill="#FF1F1F" width="116" height="114"/>
	<g>
		<path fill="#FFFFFF" d="M4.984,95.387h7.738v1.181H9.494v8.096H8.161v-8.096H4.984V95.387z"/>
		<path fill="#FFFFFF" d="M13.99,95.4h1.326v9.264H13.99V95.4z"/>
		<path fill="#FFFFFF" d="M17.371,95.4h5.252v1.181h-3.926v2.825h3.793v1.187h-3.793v2.878h4.052v1.18h-5.378V95.4z"/>
		<path fill="#FFFFFF" d="M24.201,104.664V95.4h2.321c0.937,0,1.681,0.232,2.231,0.696c0.55,0.464,0.825,1.092,0.825,1.883
			c0,0.54-0.135,1.006-0.404,1.399c-0.27,0.393-0.656,0.687-1.161,0.882c0.296,0.194,0.586,0.459,0.869,0.795
			c0.283,0.336,0.681,0.922,1.194,1.757c0.323,0.526,0.581,0.922,0.776,1.187l0.491,0.663h-1.578l-0.404-0.61
			c-0.013-0.022-0.04-0.06-0.079-0.113l-0.258-0.365l-0.411-0.677l-0.444-0.723c-0.274-0.38-0.524-0.683-0.752-0.908
			s-0.434-0.387-0.618-0.487c-0.184-0.099-0.492-0.149-0.926-0.149h-0.345v4.032H24.201z M25.925,96.527h-0.398v2.924h0.504
			c0.672,0,1.133-0.058,1.382-0.172c0.25-0.115,0.444-0.289,0.583-0.521c0.14-0.232,0.209-0.496,0.209-0.792
			c0-0.292-0.077-0.556-0.232-0.792c-0.155-0.236-0.373-0.403-0.653-0.5S26.575,96.527,25.925,96.527z"/>
		<path fill="#FFFFFF" d="M40.683,95.268c1.431,0,2.623,0.453,3.575,1.359s1.428,2.042,1.428,3.408s-0.48,2.497-1.441,3.392
			c-0.961,0.896-2.172,1.343-3.635,1.343c-1.396,0-2.559-0.447-3.489-1.343c-0.93-0.895-1.395-2.017-1.395-3.365
			c0-1.383,0.468-2.528,1.405-3.435S39.251,95.268,40.683,95.268z M40.735,96.527c-1.06,0-1.931,0.332-2.613,0.995
			c-0.683,0.663-1.024,1.51-1.024,2.54c0,0.999,0.342,1.83,1.027,2.493c0.684,0.664,1.541,0.995,2.57,0.995
			c1.033,0,1.896-0.338,2.587-1.015c0.691-0.676,1.037-1.519,1.037-2.526c0-0.981-0.346-1.807-1.037-2.477
			C42.591,96.862,41.742,96.527,40.735,96.527z"/>
		<path fill="#FFFFFF" d="M54.677,95.4h1.26v9.264h-1.141l-6.193-7.134v7.134h-1.247V95.4h1.074l6.246,7.195V95.4z"/>
		<path fill="#FFFFFF" d="M57.919,95.4h5.252v1.181h-3.926v2.825h3.793v1.187h-3.793v2.878h4.052v1.18h-5.378V95.4z"/>
		<path fill="#FFFFFF" d="M71.619,104.664h-3.137V95.4h2.427c0.765,0,1.361,0.103,1.79,0.309s0.756,0.488,0.981,0.849
			c0.226,0.36,0.338,0.777,0.338,1.25c0,0.911-0.471,1.563-1.413,1.956c0.676,0.128,1.215,0.407,1.615,0.835
			c0.4,0.429,0.6,0.942,0.6,1.539c0,0.473-0.122,0.895-0.365,1.267c-0.243,0.371-0.6,0.674-1.071,0.908
			S72.326,104.664,71.619,104.664z M70.949,96.581h-1.141v2.785h0.882c0.707,0,1.21-0.135,1.508-0.404s0.448-0.619,0.448-1.048
			C72.647,97.025,72.081,96.581,70.949,96.581z M71.049,100.546h-1.24v2.938h1.307c0.725,0,1.217-0.057,1.475-0.169
			c0.259-0.112,0.466-0.288,0.624-0.527c0.157-0.239,0.235-0.495,0.235-0.769c0-0.283-0.083-0.542-0.249-0.776
			c-0.166-0.234-0.401-0.409-0.707-0.524C72.189,100.603,71.708,100.546,71.049,100.546z"/>
		<path fill="#FFFFFF" d="M76.168,104.664V95.4h2.321c0.937,0,1.681,0.232,2.231,0.696c0.55,0.464,0.825,1.092,0.825,1.883
			c0,0.54-0.135,1.006-0.404,1.399c-0.27,0.393-0.656,0.687-1.161,0.882c0.296,0.194,0.586,0.459,0.869,0.795
			c0.283,0.336,0.681,0.922,1.194,1.757c0.323,0.526,0.581,0.922,0.776,1.187l0.491,0.663h-1.578l-0.404-0.61
			c-0.013-0.022-0.04-0.06-0.079-0.113l-0.258-0.365l-0.411-0.677l-0.444-0.723c-0.274-0.38-0.524-0.683-0.752-0.908
			s-0.434-0.387-0.618-0.487c-0.184-0.099-0.492-0.149-0.926-0.149h-0.345v4.032H76.168z M77.892,96.527h-0.398v2.924h0.504
			c0.672,0,1.133-0.058,1.382-0.172c0.25-0.115,0.444-0.289,0.583-0.521c0.14-0.232,0.209-0.496,0.209-0.792
			c0-0.292-0.077-0.556-0.232-0.792c-0.155-0.236-0.373-0.403-0.653-0.5S78.542,96.527,77.892,96.527z"/>
		<path fill="#FFFFFF" d="M84.344,95.4h1.326v9.264h-1.326V95.4z"/>
		<path fill="#FFFFFF" d="M95.709,102.515v1.459c-0.973,0.53-2.095,0.795-3.369,0.795c-1.034,0-1.912-0.208-2.632-0.623
			c-0.721-0.416-1.291-0.988-1.711-1.718c-0.42-0.729-0.63-1.518-0.63-2.367c0-1.348,0.481-2.482,1.442-3.401
			s2.147-1.379,3.557-1.379c0.973,0,2.054,0.254,3.243,0.763v1.425c-1.083-0.619-2.142-0.928-3.176-0.928
			c-1.061,0-1.942,0.335-2.642,1.005c-0.701,0.669-1.051,1.508-1.051,2.516c0,1.017,0.345,1.853,1.035,2.507
			c0.689,0.654,1.571,0.981,2.646,0.981C93.543,103.55,94.64,103.205,95.709,102.515z"/>
		<path fill="#FFFFFF" d="M102.58,95.4h1.657l-4.018,4.396l5.006,4.867h-1.81l-4.734-4.575v4.575h-1.326V95.4h1.326v4.237
			L102.58,95.4z"/>
		<path fill="#FFFFFF" d="M108.54,100.782l-1.008-0.612c-0.632-0.386-1.082-0.766-1.35-1.139s-0.401-0.804-0.401-1.29
			c0-0.729,0.253-1.322,0.759-1.777c0.506-0.456,1.164-0.683,1.973-0.683c0.773,0,1.483,0.217,2.128,0.651v1.505
			c-0.667-0.642-1.386-0.963-2.155-0.963c-0.433,0-0.789,0.101-1.067,0.301s-0.418,0.457-0.418,0.77
			c0,0.277,0.103,0.537,0.308,0.779s0.535,0.497,0.99,0.763l1.013,0.6c1.13,0.675,1.695,1.534,1.695,2.577
			c0,0.743-0.249,1.346-0.746,1.81c-0.497,0.464-1.144,0.696-1.939,0.696c-0.915,0-1.749-0.281-2.5-0.844v-1.684
			c0.716,0.907,1.545,1.361,2.487,1.361c0.416,0,0.761-0.116,1.038-0.347c0.276-0.231,0.415-0.521,0.415-0.869
			C109.76,101.823,109.354,101.288,108.54,100.782z"/>
	</g>
	<path fill="#FFFFFF" d="M58,10.234c-21.304,0-38.574,17.271-38.574,38.574c0,21.304,17.27,38.574,38.574,38.574
		s38.574-17.27,38.574-38.574C96.574,27.504,79.304,10.234,58,10.234z M38.695,72.457c-6.85-5.599-11.226-14.112-11.226-23.649
		c0-4.11,0.817-8.027,2.29-11.606h8.936V72.457z M57.147,78.844c-2.909-0.082-5.713-0.583-8.359-1.433V37.36h8.359V78.844z
		 M57.147,28.212H34.662c5.529-6.26,13.535-10.272,22.485-10.515V28.212z M68.975,20.657c9.816,3.83,17.136,12.64,18.853,23.327
		H68.975V20.657z M68.975,76.958V56.6h18.204C84.691,65.931,77.864,73.49,68.975,76.958z"/>
</g>
</svg>
